<?xml version="1.0" encoding="utf-8"?>
<!-- Generator: Adobe Illustrator 26.0.0, SVG Export Plug-In . SVG Version: 6.00 Build 0)  -->
<svg version="1.1" id="Layer_1" xmlns="http://www.w3.org/2000/svg" xmlns:xlink="http://www.w3.org/1999/xlink" x="0px" y="0px"
	 viewBox="0 0 260 260" style="enable-background:new 0 0 260 260;" xml:space="preserve">
<style type="text/css">
	.st0{fill:#82B241;}
	.st1{fill:#F0E047;}
	.st2{fill:#824628;}
	.st3{fill:#FFFFFF;}
	.st4{display:none;fill:#CC3746;}
	.st5{fill:none;stroke:#000000;stroke-width:2;stroke-miterlimit:10;}
	.st6{fill:#FFF200;stroke:#FFF200;stroke-miterlimit:10;}
	.st7{fill:#FFF200;}
</style>
<image style="display:none;overflow:visible;enable-background:new    ;" width="1075" height="1079" xlink:href="208020D3.png"  transform="matrix(0.2391 0 0 0.2391 1.44 0.9618)">
</image>
<path class="st0" d="M130,62.1c10-16.1,22.6-26.6,39-28.3c23.3,3,31.2,22.3,30.5,50.5c47.2,23.5,55.5,37.9,55.5,50.5
	c-7.8-7.3-23.8-1.1-58.3,15c-34.7-15.1-51.9-29.1-66.8-26.7c-27.5,1.3-45.2,20.8-63.7,26.7c-15.8-4.9-36.5-22.8-60.5-14.4
	c3.1-18.2,23.3-34.9,56.1-50.5C60.6,60,66.3,40.4,89.1,33.8C110.7,33.8,120.5,47.4,130,62.1z"/>
<path class="st1" d="M190.1,190.4c-16.1,17.9-48.3,33-60.1,33c-9.3,0-39.5-11.7-63.2-36.9C28.4,172,6.4,155.7,5.8,135.4
	c17.4-10.7,39.8,6.3,60.5,14.4c20-9.4,40.6-27.4,63.7-26.7c20.8-1.4,39.7,15.5,66.8,26.7c25.7-15.1,46.3-23.6,58.3-15
	C257.4,163.5,228,171.7,190.1,190.4z"/>
<path class="st2" d="M26.9,149.8c24,7.1,46.9,14.3,70.1,17.4c45.5,6.1,91-0.3,136.4-17.4c-56.4,18-56.9,58.4-103.3,62.2
	C86.7,209.4,79.4,163.8,26.9,149.8z"/>
<polygon class="st3" points="101.3,184.2 109.7,168.8 97,167.2 "/>
<polygon class="st3" points="161.5,183.2 153,168.1 165.7,166.6 "/>
<ellipse class="st0" cx="112.5" cy="144.4" rx="4.2" ry="6.4"/>
<ellipse class="st0" cx="148.9" cy="143.4" rx="4.2" ry="6.4"/>
<ellipse class="st3" cx="94" cy="79.6" rx="14.2" ry="22"/>
<ellipse class="st3" cx="168.8" cy="79.6" rx="14.2" ry="22"/>
<path class="st4" d="M177,241.8c-1-3.1-1.4-10-1.4-10s-4.4-15.1-9.9-21.5l-11.4,6c13.1,10.7,13.9,30,10.6,35.8
	c-2.8,4.8,3.7-6,3.8-7.5c0.2-2.2,7.4,4,8.3,7C177.2,249.9,177.4,246.3,177,241.8z"/>
<path class="st5" d="M101.7,81.2c-6.4,2.4-13.6-0.8-16.1-7.2c-2-5.1,0.6-10.9,5.8-12.8c4.1-1.6,8.7,0.5,10.3,4.6
	c1.2,3.3-0.4,7-3.7,8.2c-2.6,1-5.6-0.3-6.6-2.9c-0.8-2.1,0.2-4.5,2.4-5.3c1.7-0.6,3.6,0.2,4.2,1.9c0.5,1.3-0.2,2.9-1.5,3.4
	c-1.1,0.4-2.3-0.1-2.7-1.2c-0.3-0.9,0.1-1.8,1-2.2"/>
<path class="st5" d="M178,81.2c-6.4,2.4-13.6-0.8-16.1-7.2c-2-5.1,0.6-10.9,5.8-12.8c4.1-1.6,8.7,0.5,10.3,4.6
	c1.2,3.3-0.4,7-3.7,8.2c-2.6,1-5.6-0.3-6.6-2.9c-0.8-2.1,0.2-4.5,2.4-5.3c1.7-0.6,3.6,0.2,4.2,1.9c0.5,1.3-0.2,2.9-1.5,3.4
	c-1.1,0.4-2.3-0.1-2.7-1.2c-0.3-0.9,0.1-1.8,1-2.2"/>
<g>
	<polygon class="st6" points="228.1,87.8 223.2,87.1 219.8,90.7 219,85.8 214.5,83.7 218.9,81.4 219.5,76.5 223,80 227.9,79 
		225.7,83.5 	"/>
	<g>
		<g>
			<path class="st7" d="M234.3,76.5c-3.1,8.9-15.4,10.5-23.4,11.6c-38.6,3-76.9-8.1-111.4-24.4c-11.6-5.7-22.8-12-32.8-20.4
				c-3.3-2.9-6.5-5.9-9.2-9.7c-7.5-10.2-4.6-19.9,7.8-23.3c12.7-3.3,25.8-1.8,38.4-0.1c33.3,5.3,65.6,16.1,95.7,31.2
				C210.3,47,237.9,61.9,234.3,76.5L234.3,76.5z M231.1,75.5c1.9-7.2-6.5-14.7-11.5-19.1c-28.7-22.9-67.9-35.7-103.8-41.9
				c-12.3-1.9-25-3.1-37.3-2c-9.8,0.9-26.9,4.5-16.1,17.3c7.8,9.1,18.8,15.2,29.5,20.8c14.7,7.5,30.2,13.5,46,18.4
				C154.7,74.3,221.4,94,231.1,75.5L231.1,75.5z"/>
		</g>
		<polygon class="st6" points="144.6,21.7 141.3,21.6 139.4,24.3 138.4,21.2 135.3,20.2 138,18.3 138,15 140.6,17 143.7,16 
			142.6,19.1 		"/>
		<polygon class="st6" points="68,46.5 61.2,40.6 52.5,42.8 56.1,34.6 51.3,26.9 60.2,27.7 66,20.8 68,29.6 76.3,32.9 68.6,37.5 		
			"/>
		<circle class="st6" cx="216.2" cy="46.5" r="1.1"/>
		<circle class="st6" cx="202.4" cy="80" r="1.1"/>
		<circle class="st6" cx="81.9" cy="17.2" r="2.2"/>
	</g>
</g>
<g>
	<polygon class="st6" points="36.2,83.5 33.9,79 38.8,80 42.4,76.5 43,81.4 47.4,83.7 42.9,85.8 42.1,90.7 38.7,87.1 33.8,87.8 	"/>
	<g>
		<g>
			<path class="st7" d="M27.6,76.5C24,61.9,51.5,47,62.4,41.3c30.1-15.1,62.5-25.9,95.7-31.2c12.6-1.7,25.8-3.2,38.4,0.1
				c12.5,3.4,15.4,13.2,7.9,23.3c-2.7,3.8-5.9,6.8-9.2,9.7c-10,8.4-21.2,14.8-32.8,20.4C127.8,79.9,89.5,91.1,51,88.1
				C43,87,30.7,85.4,27.6,76.5L27.6,76.5z M30.8,75.5C40.4,94,107.2,74.3,124,69c15.8-4.9,31.3-10.9,46-18.4
				c10.7-5.6,21.7-11.7,29.5-20.8c10.8-12.8-6.3-16.4-16.1-17.3c-12.3-1.1-25,0.1-37.3,2c-35.9,6.2-75.1,19-103.8,41.9
				C37.3,60.8,28.9,68.2,30.8,75.5L30.8,75.5z"/>
		</g>
		<polygon class="st6" points="119.2,19.1 118.2,16 121.3,17 123.9,15 123.9,18.3 126.5,20.2 123.4,21.2 122.5,24.3 120.6,21.6 
			117.3,21.7 		"/>
		<polygon class="st6" points="193.3,37.5 185.5,32.9 193.9,29.6 195.9,20.8 201.6,27.7 210.6,26.9 205.8,34.6 209.3,42.8 
			200.6,40.6 193.8,46.5 		"/>
		<circle class="st6" cx="45.6" cy="46.5" r="1.1"/>
		<circle class="st6" cx="59.5" cy="80" r="1.1"/>
		<circle class="st6" cx="180" cy="17.2" r="2.2"/>
	</g>
</g>
</svg>
