<?xml version="1.0" encoding="utf-8"?>
<!-- Generator: Adobe Illustrator 26.0.0, SVG Export Plug-In . SVG Version: 6.00 Build 0)  -->
<svg version="1.1" id="Layer_2" xmlns="http://www.w3.org/2000/svg" xmlns:xlink="http://www.w3.org/1999/xlink" x="0px" y="0px"
	 viewBox="0 0 500 500" style="enable-background:new 0 0 500 500;" xml:space="preserve">
<style type="text/css">
	.st0{fill:#555555;stroke:#555555;stroke-width:3;stroke-miterlimit:10;}
	.st1{fill:none;stroke:#555555;stroke-width:3;stroke-miterlimit:10;}
	.st2{fill:none;stroke:#555555;stroke-width:10;stroke-miterlimit:10;}
	.st3{fill:#FFFFFF;stroke:#555555;stroke-width:0.25;stroke-miterlimit:10;}
	.st4{fill:#555555;stroke:#555555;stroke-width:0.25;stroke-miterlimit:10;}
	.st5{fill:#FFFFFF;stroke:#555555;stroke-width:3;stroke-miterlimit:10;}
</style>
<path class="st0" d="M381.61,145.18c-0.05-47.06-6.93-88.32-53.25-96.1c-24.51,0.83-49.63,7.91-78.28,50.65
	c-22.21-33.16-47.92-56.52-84.05-50.65c-31.7,7.44-45.08,42.34-46.76,94.8c-78.98,34.32-99.39,70.29-107.79,97.41
	c44.14-14.56,79.28,3.73,112.99,27.27c42.87-31.6,105.1-50.65,125.92-50.65c20.83,0,77.03,23.38,122.13,50.65
	c48.04-29.5,86.61-37.66,114.29-24.68C490.3,215.31,467.78,176.02,381.61,145.18z M176.42,177.65c-16.62,0-30.09-18.03-30.09-40.26
	c0-22.24,13.47-40.26,30.09-40.26c16.61,0,30.09,18.02,30.09,40.26C206.51,159.62,193.03,177.65,176.42,177.65z M322.09,177.65
	c-16.62,0-30.09-18.03-30.09-40.26c0-22.24,13.47-40.26,30.09-40.26c16.62,0,30.09,18.02,30.09,40.26
	C352.18,159.62,338.71,177.65,322.09,177.65z"/>
<ellipse class="st1" cx="176.42" cy="137.39" rx="30.09" ry="40.26"/>
<ellipse class="st1" cx="322.09" cy="137.39" rx="30.09" ry="40.26"/>
<path class="st2" d="M377.71,348.08c-23.11,14.27-42.71,30.8-58.44,49.85l-16.88-12.46c39.37-42.96,71.64-73.6,104.97-91.76
	c-1.8,0.59-3.6,1.17-5.4,1.74c-1.13,0.36-2.27,0.73-3.4,1.07c-2.72,0.84-5.43,1.65-8.15,2.44c-0.66,0.19-1.33,0.38-1.99,0.58
	c-3.85,1.11-7.71,2.15-11.57,3.17c-1.27,0.32-2.55,0.65-3.82,0.97c-0.9,0.23-1.8,0.46-2.71,0.67c-1.86,0.46-3.71,0.91-5.57,1.33
	c-1.81,0.43-3.62,0.83-5.43,1.24c-0.08,0.02-0.17,0.03-0.25,0.05l-2.87,0.62c-1.19,0.26-2.38,0.5-3.57,0.75
	c-2.62,0.54-5.25,1.07-7.87,1.55c-0.53,0.11-1.06,0.2-1.59,0.3c-1.47,0.28-2.95,0.54-4.42,0.8c-1.63,0.29-3.27,0.57-4.91,0.82
	c-1.46,0.25-2.92,0.47-4.38,0.69c-1.52,0.23-3.05,0.47-4.58,0.68c-2.37,0.34-4.74,0.66-7.11,0.97h-0.01
	c-0.14,0.02-0.28,0.03-0.42,0.05c-0.68,0.09-1.35,0.17-2.03,0.25c-1.14,0.15-2.27,0.28-3.41,0.41c-1.54,0.18-3.08,0.34-4.62,0.5
	c-1.24,0.14-2.48,0.26-3.73,0.37c-1.7,0.17-3.4,0.32-5.09,0.46c-0.61,0.05-1.22,0.11-1.83,0.15c-1.37,0.12-2.75,0.22-4.12,0.31
	c-0.17,0.01-0.34,0.03-0.51,0.04c-1.29,0.09-2.58,0.17-3.87,0.25c-1.25,0.09-2.5,0.15-3.75,0.21c-0.24,0.02-0.48,0.03-0.71,0.04
	c-1.42,0.07-2.85,0.14-4.27,0.19c-3.05,0.14-6.11,0.23-9.17,0.3c-3.25,0.06-6.51,0.1-9.77,0.1c-1.47,0-2.94-0.01-4.41-0.03
	c-0.43,0.01-0.86,0-1.28-0.01c-1.42-0.02-2.85-0.04-4.27-0.07c-0.86-0.02-1.72-0.04-2.58-0.06c-0.68-0.01-1.35-0.03-2.02-0.06
	c-0.95-0.03-1.89-0.06-2.83-0.11c-0.65-0.01-1.3-0.04-1.94-0.07c-0.94-0.03-1.88-0.09-2.81-0.13c-0.92-0.04-1.84-0.1-2.76-0.15
	c-1.5-0.07-3-0.17-4.51-0.27c-1.53-0.11-3.07-0.21-4.61-0.33c-2.83-0.21-5.67-0.45-8.51-0.73c-1.79-0.16-3.58-0.34-5.37-0.53
	c-1.06-0.11-2.13-0.22-3.2-0.35h-0.04c-1.94-0.22-3.88-0.45-5.82-0.7c-1.14-0.14-2.29-0.29-3.43-0.45
	c-1.01-0.13-2.03-0.27-3.04-0.42c-2.96-0.41-5.92-0.85-8.9-1.33l-0.43-0.06c-1.24-0.19-2.48-0.39-3.73-0.62
	c-1.25-0.2-2.5-0.43-3.74-0.64c-1.07-0.19-2.15-0.38-3.23-0.59c-1.52-0.28-3.05-0.57-4.57-0.86c-1.15-0.22-2.3-0.45-3.45-0.68
	c-1.25-0.25-2.5-0.51-3.75-0.77c-1.25-0.26-2.5-0.52-3.76-0.8c-1.26-0.28-2.51-0.55-3.77-0.84c-1.26-0.28-2.51-0.57-3.77-0.86
	c-1.26-0.29-2.52-0.59-3.78-0.9c-1.21-0.29-2.41-0.59-3.62-0.89c-0.05-0.01-0.1-0.03-0.16-0.04c-1.26-0.32-2.53-0.64-3.79-0.97
	c-1.26-0.32-2.52-0.65-3.79-0.99c-1.26-0.34-2.53-0.68-3.79-1.02c-1.27-0.34-2.54-0.7-3.82-1.07c-1.27-0.36-2.53-0.73-3.79-1.09
	c-1.53-0.44-3.07-0.9-4.61-1.35c-1-0.31-2.01-0.62-3.02-0.93c-0.41-0.12-0.82-0.25-1.23-0.38c-0.93-0.28-1.85-0.57-2.78-0.86
	c-0.51-0.16-1.03-0.32-1.54-0.49c-0.7-0.22-1.39-0.45-2.09-0.67c-1.28-0.42-2.55-0.83-3.83-1.26c-1.85-0.62-3.71-1.24-5.57-1.88
	c-1.86-0.64-3.72-1.29-5.59-1.95c-0.27-0.1-0.55-0.19-0.82-0.29c-1.13-0.41-2.26-0.82-3.39-1.23c-2.57-0.94-5.15-1.9-7.72-2.88
	c-0.61-0.22-1.22-0.46-1.84-0.7c-5.83-2.24-11.67-4.58-17.53-7.06c98.54,44.86,103.66,116.1,184.56,127.15l29.92-6.93l16.88,13.85
	c-4.58,7.27-22.98,12.39-47.11,16.61c-19.81-3.52-37.07-8.34-50.29-15.23c-23.58-23.27-45.9-43.4-64.93-55.39
	C56.91,319.41,19.27,306.54,11.48,242.84c44.14-15.52,79.28,3.98,112.99,29.08c42.87-33.69,105.1-54.01,125.92-54.01
	c20.83,0,77.03,24.93,122.13,54.01c48.04-31.45,86.61-40.15,114.29-26.31C501.96,269.3,446.07,332.02,377.71,348.08z"/>
<path class="st1" d="M201.62,375.06c10.95,5.81,21.73,10.7,32.17,13.73C221.43,385.61,211.01,380.89,201.62,375.06z"/>
<g>
	<path class="st3" d="M407.36,288.99c-33.33,17.03-65.6,45.77-104.97,86.06c-31.17-17.27-65.47-12.24-100.79,0
		c-40.4-25.09-61.67-70.72-135.77-102.36C186.47,320.37,299.74,322.19,407.36,288.99z"/>
	<path class="st4" d="M303.94,385.63l-5.67-3.14c-24.53-13.59-53.48-13.4-93.89,0.6l-3.83,1.33l-3.44-2.14
		c-15.9-9.87-28.82-22.61-42.5-36.09c-22.12-21.79-47.18-46.49-92.12-65.68l6.46-15.72c114.46,45.24,224.34,50.5,335.9,16.08
		l6.37,15.69c-28.73,14.68-58.5,39.14-102.76,84.43L303.94,385.63z M133.51,303.64c12.56,10.26,23.08,20.63,33.04,30.44
		c12.48,12.3,23.4,23.05,36.21,31.61c28.36-9.46,63.94-17,97.94-1.04c19.07-19.37,39-38.56,59.59-54.82
		c-39.63,8.11-79.53,11.42-119.14,9.84C205.62,318.25,169.62,312.88,133.51,303.64z"/>
</g>
<path class="st1" d="M55.64,268.56c3.5,1.35,6.9,2.72,10.19,4.13C62.44,271.35,59.04,269.97,55.64,268.56z"/>
<path class="st1" d="M450.44,273.75c-14.26,5.7-28.62,10.79-43.08,15.24C421.33,281.85,435.49,276.77,450.44,273.75z"/>
<ellipse class="st5" cx="176.42" cy="137.39" rx="30.09" ry="40.26"/>
<ellipse class="st5" cx="322.09" cy="137.39" rx="30.09" ry="40.26"/>
<ellipse class="st0" cx="322.09" cy="146.88" rx="18.44" ry="24.68"/>
<ellipse class="st0" cx="176.42" cy="146.88" rx="18.44" ry="24.68"/>
<circle class="st0" cx="215.74" cy="259.32" r="9.24"/>
<circle class="st0" cx="282.76" cy="261.39" r="9.24"/>
<polygon class="st0" points="187.7,306.04 194.86,336.09 209.33,308.82 "/>
<polygon class="st0" points="292,310.52 303.65,336.09 317.77,308.14 "/>
<path class="st0" d="M411.23,450.99c-7.22,5.64-11.21,19.48-36.43,11.68c-25.22-7.79-43.58-29.75-70.06-54.54l-18.21-12.99
	l-32.27,6.5c-0.03-0.01-0.08-0.01-0.12-0.01c-6.34-0.76-12.26-1.82-17.8-3.14c-11.26-3.03-22.89-7.92-34.71-13.73
	c-0.01,0-0.01-0.01-0.02-0.01c38.11-12.24,75.11-17.27,108.74,0l18.21,11.69c30.95,31.61,61.63,37.88,81.27,35.07
	c-9.16,3.47-19.41,7.36-30.82,11.68C379.96,447.82,391.48,450.25,411.23,450.99z"/>
<path class="st0" d="M233.79,388.79c5.14,1.32,10.62,2.38,16.5,3.14C244.91,391.52,239.4,390.42,233.79,388.79z"/>
<path class="st0" d="M280.31,385.44c-9.35,5.49-19.39,7.29-29.91,6.5L280.31,385.44z"/>
</svg>
